<svg xmlns="http://www.w3.org/2000/svg" width="512" height="512" viewBox="0 0 512 512" role="img" aria-labelledby="title">
  <title>Tesla Vehicle Command Proxy</title>
  <rect width="512" height="512" rx="88" fill="#102a43"/>
  <path d="M104 316l30-104c9-31 31-49 63-49h118c32 0 54 18 63 49l30 104v55c0 16-13 29-29 29h-18c-16 0-29-13-29-29v-14H180v14c0 16-13 29-29 29h-18c-16 0-29-13-29-29v-55z" fill="#e7f7f8"/>
  <path d="M147 278h218l-18-58c-5-17-15-25-31-25H196c-16 0-26 8-31 25l-18 58z" fill="#4db6ac"/>
  <circle cx="177" cy="320" r="17" fill="#102a43"/>
  <circle cx="335" cy="320" r="17" fill="#102a43"/>
  <path d="M274 82l-68 123h51l-18 91 68-126h-51z" fill="#f5b942"/>
  <path d="M255 366h2" stroke="#4db6ac" stroke-width="16" stroke-linecap="round"/>
</svg>